<svg xmlns="http://www.w3.org/2000/svg" width="48" height="48" viewBox="0 0 48 48">
  <rect width="48" height="48" rx="10" fill="#ffffff"/>
  <g fill="#166534">
    <rect x="5" y="5" width="16" height="16" rx="2"/>
    <rect x="27" y="5" width="16" height="16" rx="2"/>
    <rect x="5" y="27" width="16" height="16" rx="2"/>
    <rect x="27" y="27" width="16" height="16" rx="2"/>
  </g>
  <g fill="#22c55e">
    <rect x="9" y="9" width="8" height="8" rx="1"/>
    <rect x="31" y="9" width="8" height="8" rx="1"/>
    <rect x="9" y="31" width="8" height="8" rx="1"/>
    <rect x="31" y="31" width="8" height="8" rx="1"/>
  </g>
  <g>
    <rect x="18" y="18" width="5" height="5" fill="#67b97c"/>
    <rect x="25" y="18" width="5" height="5" fill="#67b97c"/>
    <rect x="18" y="25" width="5" height="5" fill="#67b97c"/>
    <rect x="25" y="25" width="5" height="5" fill="#166534"/>
  </g>
</svg>